<svg xmlns="http://www.w3.org/2000/svg" xmlns:xlink="http://www.w3.org/1999/xlink" width="40" zoomAndPan="magnify" viewBox="0 0 30 30.000001" height="40" preserveAspectRatio="xMidYMid meet" version="1.0"><defs><clipPath id="7a867684a0"><path d="M 6.328125 5.699219 L 23.671875 5.699219 L 23.671875 23.585938 L 6.328125 23.585938 Z M 6.328125 5.699219 " clip-rule="nonzero"/></clipPath><clipPath id="d63a0b6c5d"><path d="M 15 5.699219 C 10.210938 5.699219 6.328125 9.644531 6.328125 14.515625 C 6.328125 19.386719 10.210938 23.335938 15 23.335938 C 19.789062 23.335938 23.671875 19.386719 23.671875 14.515625 C 23.671875 9.644531 19.789062 5.699219 15 5.699219 " clip-rule="nonzero"/></clipPath><clipPath id="3c10b3df80"><path d="M 8.722656 8.238281 L 21.058594 8.238281 L 21.058594 20.578125 L 8.722656 20.578125 Z M 8.722656 8.238281 " clip-rule="nonzero"/></clipPath></defs><g clip-path="url(#7a867684a0)"><g clip-path="url(#d63a0b6c5d)"><path fill="#fbd512" d="M 6.328125 5.699219 L 23.671875 5.699219 L 23.671875 23.316406 L 6.328125 23.316406 Z M 6.328125 5.699219 " fill-opacity="1" fill-rule="nonzero"/></g></g><g clip-path="url(#3c10b3df80)"><path fill="#000000" d="M 9.132812 14.820312 L 14.480469 14.820312 L 14.480469 20.164062 C 14.480469 20.390625 14.664062 20.578125 14.890625 20.578125 C 15.117188 20.578125 15.300781 20.390625 15.300781 20.164062 L 15.300781 14.820312 L 20.648438 14.820312 C 20.875 14.820312 21.058594 14.632812 21.058594 14.40625 C 21.058594 14.179688 20.875 13.996094 20.648438 13.996094 L 15.300781 13.996094 L 15.300781 8.648438 C 15.300781 8.421875 15.117188 8.238281 14.890625 8.238281 C 14.664062 8.238281 14.480469 8.421875 14.480469 8.648438 L 14.480469 13.996094 L 9.132812 13.996094 C 8.90625 13.996094 8.722656 14.179688 8.722656 14.40625 C 8.722656 14.632812 8.90625 14.820312 9.132812 14.820312 Z M 9.132812 14.820312 " fill-opacity="1" fill-rule="nonzero"/></g></svg>